<?xml version="1.0" standalone="no"?><!DOCTYPE svg PUBLIC "-//W3C//DTD SVG 1.1//EN" "http://www.w3.org/Graphics/SVG/1.1/DTD/svg11.dtd"><svg t="1763210125932" class="icon" viewBox="0 0 1024 1024" version="1.1" xmlns="http://www.w3.org/2000/svg" p-id="2428" xmlns:xlink="http://www.w3.org/1999/xlink" width="256" height="256"><path d="M635.2896 287.5392c140.6976 0 254.7712 114.0736 254.7712 254.7712S775.9872 797.0816 635.2896 797.0816 380.5184 683.008 380.5184 542.3104 494.592 287.5392 635.2896 287.5392z" fill="#FEEFD9" p-id="2429"></path><path d="M653.1072 5.12C601.1904 5.12 551.936 27.3408 516.5056 65.2288 480.8704 27.3408 431.7184 5.12 379.8016 5.12 274.5344 5.12 188.928 93.184 188.928 201.4208c0 3.584 0.3072 6.8608 0.6144 9.5232 0 0.9216-0.1024 1.7408-0.1024 2.6624 0 19.1488 4.7104 40.2432 13.9264 62.5664 0.3072 0.8192 0.6144 1.6384 0.9216 2.3552C262.4512 416.8704 486.4 576 495.9232 583.2704c5.9392 4.5056 12.9024 6.7584 20.0704 6.7584s14.2336-2.3552 20.1728-6.9632c8.192-6.2464 199.168-142.5408 274.944-271.4624 2.8672-4.4032 5.0176-8.6016 6.9632-12.1856 0.6144-1.1264 1.1264-2.3552 1.7408-3.4816l0.2048-0.512c0.2048-0.4096 0.512-0.9216 0.8192-1.3312 4.5056-8.8064 8.192-16.896 11.0592-24.7808 7.8848-20.48 11.6736-38.6048 11.6736-55.6032 0-1.3312 0-2.4576-0.1024-3.4816 0.2048-2.2528 0.512-5.2224 0.512-8.8064C843.9808 93.184 758.272 5.12 653.1072 5.12z m117.6576 210.0224c-0.3072 7.4752-2.56 16.9984-7.3728 29.3888-1.536 4.1984-3.4816 8.8064-6.0416 13.824-0.3072 0.512-0.6144 1.024-0.9216 1.6384l-2.1504 3.9936c-0.4096 0.8192-0.9216 1.7408-1.3312 2.6624-0.8192 1.536-1.6384 3.2768-2.7648 5.0176l-1.9456 3.1744C710.656 338.944 624.5376 424.8576 515.8912 507.392c-99.9424-75.9808-211.1488-178.7904-244.224-256.3072l-1.024-2.56c-6.656-16.0768-8.2944-27.136-8.3968-33.792l0.3072-5.4272-0.9216-7.7824c0-68.096 53.0432-123.5968 118.1696-123.5968 30.9248 0 61.44 13.5168 83.5584 37.1712l53.1456 56.6272 53.0432-56.7296c22.1184-23.552 52.5312-37.0688 83.5584-37.0688 65.1264 0 118.0672 55.3984 118.0672 123.5968l-0.9216 8.6016 0.512 5.0176z" fill="#F69000" p-id="2430"></path><path d="M928.256 668.2624c-11.6736-6.4512-23.9616-9.6256-35.6352-9.6256-35.0208 0-62.3616 26.8288-74.0352 38.6048-31.1296 31.1296-69.0176 62.1568-86.2208 76.0832-7.2704-2.6624-15.5648-4.3008-25.6-4.8128-58.368-3.1744-151.3472-13.4144-173.056-26.3168-24.4736-13.9264-43.9296-27.3408-61.2352-39.6288l-2.7648-2.1504c-51.712-35.4304-92.3648-63.7952-193.024-63.7952-28.3648 0-53.4528 6.9632-80.6912 15.0528l-2.7648 1.024c-23.9616 6.9632-46.6944 13.9264-73.4208 13.9264-34.5088 0-62.8736 27.3408-62.8736 60.6208v141.0048c0 33.28 28.3648 60.6208 62.8736 60.6208 62.8736 0 140.8 3.1744 157.4912 8.0896 33.8944 10.752 115.2 56.832 140.8 72.3968l1.1264 1.024h0.512c10.5472 5.3248 22.8352 8.6016 35.0208 8.6016h265.9328c30.6176 0 63.3856-26.3168 75.0592-45.056 13.9264-22.016 52.3264-75.0592 155.2384-201.5232 3.3792-4.3008 5.5296-6.9632 5.5296-6.9632 0-0.512 0.512-0.512 0.512-1.024 0.512-1.024 1.6384-2.1504 2.2528-3.7888 17.408-32.3584 4.096-72.4992-31.0272-92.3648z m-223.6416 182.272l-199.168 10.1376c-14.4384-0.512-55.0912-28.3648-74.5472-41.7792-3.3792-2.1504-6.144-4.3008-9.4208-6.4512-3.3792-2.1504-6.144-4.3008-9.4208-6.4512-16.1792-11.264-28.3648-18.2272-38.4-23.04-4.4032-2.1504-8.9088-3.1744-13.9264-3.1744-11.6736 0-22.8352 6.4512-28.3648 16.5888-7.7824 14.4384-1.6384 33.28 13.9264 41.2672 10.5472 4.8128 23.9616 13.9264 38.4 23.552 3.8912 2.6624 7.2704 4.8128 11.1616 7.4752l1.6384 1.024c39.5264 26.8288 76.8 52.0192 110.1824 52.0192l199.168-10.1376c40.0384-0.512 72.9088-32.1536 72.9088-70.7584 0-6.9632-1.1264-14.4384-3.3792-21.4016 24.4736-19.2512 59.4944-49.3568 88.4736-78.2336 13.312-13.4144 22.2208-19.8656 28.3648-19.8656 1.1264 0 2.7648 0.512 3.8912 1.024 4.4032 2.6624 8.2944 7.4752 7.2704 12.288-10.0352 12.288-126.8736 154.9312-163.0208 211.7632-3.3792 5.3248-16.6912 14.4384-20.5824 15.0528H453.7344c-1.6384 0-3.3792-0.512-4.4032-1.024l-0.512-0.512c-32.256-19.2512-111.8208-64.8192-152.4736-77.7216-34.5088-10.752-152.4736-11.264-176.9472-11.776V730.4192c38.4 0 70.656-10.1376 94.6176-17.2032 22.2208-6.9632 41.1648-12.9024 61.7472-12.9024 81.2032 0 110.1824 19.8656 157.4912 53.0432l2.7648 2.1504c17.8176 12.288 38.4 26.8288 64 41.7792 12.288 7.4752 32.256 13.4144 62.8736 19.2512 53.4528 10.1376 116.8384 13.9264 137.9328 15.0528h3.3792c2.6624 0 5.2224 1.024 7.0656 2.7648 1.8432 1.8432 2.9696 4.3008 2.9696 6.8608 0.4096 5.0176-3.9936 9.3184-9.6256 9.3184z" fill="#6FB92C" p-id="2431"></path></svg>