<?xml version="1.0" standalone="no"?><!DOCTYPE svg PUBLIC "-//W3C//DTD SVG 1.1//EN" "http://www.w3.org/Graphics/SVG/1.1/DTD/svg11.dtd"><svg t="1735194958731" class="icon" viewBox="0 0 1024 1024" version="1.1" xmlns="http://www.w3.org/2000/svg" p-id="5398" xmlns:xlink="http://www.w3.org/1999/xlink" width="64" height="64"><path d="M288.667004 735.441978l178.61298 0 0 44.675502L243.903497 780.11748l0-44.675502L243.903497 556.718481l44.763506 0L288.667004 735.441978zM377.974006 646.026506l268.049942 0L646.023948 377.996007 377.974006 377.996007 377.974006 646.026506zM958.70846 244.01248l0 536.105001c0 98.621135-79.969333 178.615027-178.700985 178.615027L243.903497 958.732507c-98.642624 0-178.61298-79.993892-178.61298-178.615027L65.290517 244.01248c0-98.752118 79.969333-178.744987 178.61298-178.744987l536.105001 0C878.739127 65.267493 958.70846 145.260361 958.70846 244.01248zM869.44546 288.666492c0-74.014714-60.119239-134.069485-134.113487-134.069485L288.667004 154.597007c-74.082252 0-134.069485 60.054771-134.069485 134.069485l0 446.775486c0 73.994248 59.987233 133.983527 134.069485 133.983527l446.664969 0c73.994248 0 134.113487-59.989279 134.113487-133.983527L869.44546 288.666492zM288.667004 288.666492l178.61298 0 0-44.654013L288.667004 244.01248l-44.763506 0 0 223.290529 44.763506 0L288.667004 288.666492zM556.718993 288.666492l178.61298 0 0 178.636516 44.675502 0L780.007475 288.666492l0-44.654013L556.718993 244.01248 556.718993 288.666492zM735.331973 735.441978 556.718993 735.441978l0 44.675502 178.61298 0 44.675502 0L780.007475 556.718481l-44.675502 0L735.331973 735.441978z" p-id="5399"></path></svg>