<?xml version="1.0" standalone="no"?><!DOCTYPE svg PUBLIC "-//W3C//DTD SVG 1.1//EN" "http://www.w3.org/Graphics/SVG/1.1/DTD/svg11.dtd"><svg t="1735194814443" class="icon" viewBox="0 0 1024 1024" version="1.1" xmlns="http://www.w3.org/2000/svg" p-id="4361" width="64" height="64" xmlns:xlink="http://www.w3.org/1999/xlink"><path d="M721.066667 170.666667H853.333333v136.533333h-132.266666zM358.4 716.8h132.266667V853.333333H358.4zM537.6 716.8h132.266667V853.333333h-132.266667zM721.066667 354.133333H853.333333v136.533334h-132.266666zM721.066667 533.333333H853.333333v136.533334h-132.266666zM537.6 170.666667h132.266667v136.533333h-132.266667zM354.133333 170.666667h132.266667v136.533333H354.133333zM358.4 354.133333h315.733333v320H358.4zM170.666667 170.666667h132.266666v136.533333H170.666667zM170.666667 354.133333h132.266666v136.533334H170.666667zM170.666667 533.333333h132.266666v136.533334H170.666667zM721.066667 716.8H853.333333V853.333333h-132.266666zM170.666667 716.8h132.266666V853.333333H170.666667z" p-id="4362"></path></svg>