<?xml version="1.0" standalone="no"?><!DOCTYPE svg PUBLIC "-//W3C//DTD SVG 1.1//EN" "http://www.w3.org/Graphics/SVG/1.1/DTD/svg11.dtd"><svg t="1734673113829" class="icon" viewBox="0 0 1024 1024" version="1.1" xmlns="http://www.w3.org/2000/svg" p-id="9825" xmlns:xlink="http://www.w3.org/1999/xlink" width="256" height="256"><path d="M948.8 684.8l-94.4-56 89.6-51.2c20.8-8 30.4-30.4 33.6-51.2 0-20.8-12.8-43.2-30.4-51.2l-107.2-64 107.2-59.2c20.8-8 30.4-30.4 33.6-51.2 0-20.8-12.8-43.2-30.4-51.2L552 11.2c-17.6-12.8-43.2-12.8-59.2 0L70.4 246.4c-17.6 12.8-30.4 30.4-30.4 51.2 0 20.8 12.8 43.2 30.4 51.2l110.4 59.2-110.4 64c-17.6 8-30.4 30.4-30.4 51.2 0 20.8 12.8 43.2 30.4 51.2l97.6 56-97.6 56c-17.6 8-30.4 30.4-30.4 51.2 0 20.8 12.8 43.2 30.4 51.2l417.6 225.6c8 4.8 20.8 8 30.4 8 8 0 20.8-4.8 30.4-8l396.8-225.6c20.8-8 30.4-30.4 33.6-51.2 0-22.4-12.8-43.2-30.4-52.8zM155.2 297.6l368-209.6 345.6 209.6-350.4 195.2L155.2 297.6z m0 225.6l115.2-64 217.6 120c8 8 20.8 8 30.4 8h4.8c12.8 0 20.8-4.8 30.4-12.8l204.8-115.2 110.4 64L523.2 720l-368-196.8z m363.2 409.6L155.2 736l102.4-59.2 230.4 128c8 4.8 20.8 8 30.4 8 8 0 20.8-4.8 30.4-8l222.4-128 97.6 59.2-350.4 196.8z" p-id="9826" fill="#71B8FF"></path></svg>